<svg width="25" height="31" viewBox="0 0 25 31" fill="none" xmlns="http://www.w3.org/2000/svg">
<path d="M14.8405 3.73552V8.525H20.482L14.8405 3.73552ZM22.6555 10.85H12.496V2.325H4.72677C3.43351 2.325 2.38449 3.36349 2.38226 4.64599L2.34451 26.346C2.34228 27.63 3.39014 28.6728 4.68497 28.675L20.311 28.675C21.6058 28.675 22.6555 27.6341 22.6555 26.35V10.85ZM14.0455 0L25 9.3V26.35C25 28.9181 22.9007 31 20.311 31H4.68902C2.09126 30.9956 -0.00446021 28.9101 7.12882e-06 26.342L0.037755 4.64198C0.0422169 2.07699 2.14025 0 4.72677 0H14.0455Z" fill="#A7A7A7"/>
</svg>
